SplineFontDB: 3.0
FontName: GladiaCLM-Bold
FullName: Gladia CLM Bold
FamilyName: Gladia CLM
Weight: Bold
Copyright: Copyright (c) 2003-2022 by Maxim Iorsh (iorsh@users.sourceforge.net). Distributed under the terms of GNU General Public License version 2(http://www.gnu.org/licenses/gpl.html). \nAll rights reserved.
UComments: "2003-9-14: Created."
Version: 1.04
ItalicAngle: 0
UnderlinePosition: -100
UnderlineWidth: 50
Ascent: 800
Descent: 200
InvalidEm: 0
LayerCount: 2
Layer: 0 0 "Back" 1
Layer: 1 0 "Fore" 0
FSType: 0
OS2Version: 0
OS2_WeightWidthSlopeOnly: 0
OS2_UseTypoMetrics: 0
CreationTime: 1163025789
ModificationTime: 1666031167
PfmFamily: 81
TTFWeight: 700
TTFWidth: 6
LineGap: 90
VLineGap: 0
Panose: 0 0 0 0 0 0 0 0 0 0
OS2TypoAscent: 0
OS2TypoAOffset: 1
OS2TypoDescent: 0
OS2TypoDOffset: 1
OS2TypoLinegap: 0
OS2WinAscent: 0
OS2WinAOffset: 1
OS2WinDescent: 0
OS2WinDOffset: 1
HheadAscent: 0
HheadAOffset: 1
HheadDescent: 0
HheadDOffset: 1
OS2Vendor: 'CLM '
MarkAttachClasses: 1
DEI: 91125
LangName: 1033
Encoding: UnicodeBmp
Compacted: 1
UnicodeInterp: none
NameList: Adobe Glyph List
DisplaySize: -96
AntiAlias: 1
FitToEm: 1
WinInfo: 0 8 2
BeginPrivate: 1
BlueValues 15 [-20 0 600 610]
EndPrivate
Grid
80 678 m 25
 80 -70 l 1049
-70 450 m 25
 1058 450 l 1049
1054 150 m 25
 -80 150 l 1049
-54 600 m 25
 1062 600 l 1049
EndSplineSet
BeginChars: 65538 63

StartChar: uni0000
Encoding: 0 0 0
AltUni2: ffffffff.ffffffff.0
Width: 800
Flags: HMW
LayerCount: 2
Fore
SplineSet
150 600 m 5
 150 0 l 5
 650 0 l 5
 650 600 l 5
 150 600 l 5
100 700 m 1
 700 700 l 1
 700 -100 l 1
 100 -100 l 1
 100 700 l 1
EndSplineSet
Validated: 1
EndChar

StartChar: exclam
Encoding: 33 33 1
Width: 290
Flags: HMW
LayerCount: 2
Fore
SplineSet
170 250 m 6
 100 250 l 6
 77.9199 250 60 267.92 60 290 c 6
 60 610 l 2
 60 632.08 77.9199 650 100 650 c 2
 170 650 l 2
 192.08 650 210 632.08 210 610 c 2
 210 290 l 6
 210 267.92 192.08 250 170 250 c 6
170 0 m 2
 100 0 l 2
 77.9199 0 60 17.9199 60 40 c 2
 60 110 l 2
 60 132.08 77.9199 150 100 150 c 2
 170 150 l 2
 192.08 150 210 132.08 210 110 c 2
 210 40 l 2
 210 17.9199 192.08 0 170 0 c 2
EndSplineSet
Validated: 1
EndChar

StartChar: quotedbl
Encoding: 34 34 2
Width: 540
Flags: HMW
LayerCount: 2
Fore
SplineSet
400 540 m 6
 400 580 l 6
 400 591.04 391.04 600 380 600 c 6
 350 600 l 6
 327.92 600 310 617.92 310 640 c 6
 310 710 l 6
 310 732.08 327.92 750 350 750 c 6
 440 750 l 6
 462.08 750 480 732.08 480 710 c 6
 480 540 l 6
 480 517.92 462.08 500 440 500 c 4
 417.92 500 400 517.92 400 540 c 6
150 540 m 2
 150 580 l 2
 150 591.04 141.04 600 130 600 c 2
 100 600 l 2
 77.9199 600 60 617.92 60 640 c 2
 60 710 l 2
 60 732.08 77.9199 750 100 750 c 2
 190 750 l 2
 212.08 750 230 732.08 230 710 c 2
 230 540 l 2
 230 517.92 212.08 500 190 500 c 0
 167.92 500 150 517.92 150 540 c 2
EndSplineSet
Validated: 1
EndChar

StartChar: percent
Encoding: 37 37 3
Width: 760
Flags: HMW
LayerCount: 2
Back
SplineSet
314.266 -33.8652 m 6
 306.737 -54.623 280.379 -64.0986 255.479 -55.0352 c 4
 230.582 -45.9736 216.528 -21.7881 224.057 -1.03125 c 6
 452 628.865 l 6
 459.528 649.622 485.887 659.099 510.786 650.035 c 4
 535.684 640.974 549.738 616.788 542.209 596.031 c 6
 314.266 -33.8652 l 6
EndSplineSet
Fore
SplineSet
520 0 m 2
 497.92 0 480 17.9199 480 40 c 2
 480 260 l 2
 480 282.08 497.92 300 520 300 c 2
 670 300 l 2
 692.08 300 710 282.08 710 260 c 2
 710 40 l 2
 710 17.9199 692.08 0 670 0 c 2
 520 0 l 2
560 100 m 2
 630 100 l 2
 641.04 100 650 108.96 650 120 c 2
 650 180 l 2
 650 191.04 641.04 200 630 200 c 2
 560 200 l 2
 548.96 200 540 191.04 540 180 c 2
 540 120 l 2
 540 108.96 548.96 100 560 100 c 2
90 300 m 2
 67.9199 300 50 317.92 50 340 c 2
 50 560 l 2
 50 582.08 67.9199 600 90 600 c 2
 240 600 l 2
 262.08 600 280 582.08 280 560 c 2
 280 340 l 2
 280 317.92 262.08 300 240 300 c 2
 90 300 l 2
130 400 m 2
 200 400 l 2
 211.04 400 220 408.96 220 420 c 2
 220 480 l 2
 220 491.04 211.04 500 200 500 c 2
 130 500 l 2
 118.96 500 110 491.04 110 480 c 2
 110 420 l 2
 110 408.96 118.96 400 130 400 c 2
335.286 19.6699 m 2
 327.758 -1.08789 301.399 -10.5635 276.5 -1.5 c 0
 251.603 7.56152 237.549 31.7471 245.077 52.5039 c 2
 432.714 580.33 l 2
 440.242 601.087 466.601 610.563 491.5 601.5 c 0
 516.397 592.438 530.452 568.253 522.923 547.496 c 2
 335.286 19.6699 l 2
EndSplineSet
Validated: 33
EndChar

StartChar: parenleft
Encoding: 40 40 4
Width: 330
Flags: HMW
LayerCount: 2
Fore
SplineSet
50 6 m 2
 50 594 l 2
 50 627 58.7197 650.916 90.5 668.5 c 2
 210.952 737.5 l 2
 220.325 742.687 228.347 750 240.004 750 c 0
 262.084 750 280.004 732.08 280.004 710 c 2
 280.004 646.5 l 2
 280.004 632.151 271.765 618.685 261.076 612.5 c 2
 140.219 541.266 l 2
 134.081 537.714 130 531.652 130 524 c 2
 130 76 l 2
 130 69.0781 134.081 62.2861 140.219 58.7344 c 2
 261.076 -12.5 l 2
 271.765 -18.6846 280.004 -32.1514 280.004 -46.5 c 2
 280.004 -110 l 2
 280.004 -132.08 262.084 -150 240.004 -150 c 0
 228.347 -150 220.325 -142.687 210.952 -137.5 c 2
 90.5 -68.5 l 2
 58.9404 -50.5225 50 -27.7305 50 6 c 2
EndSplineSet
Validated: 1
EndChar

StartChar: parenright
Encoding: 41 41 5
Width: 330
Flags: HMW
LayerCount: 2
Back
SplineSet
380.004 63.2695 m 2
 380.004 29.5391 371.063 6.74707 339.504 -11.2305 c 2
 119.052 -137.5 l 2
 109.679 -142.687 101.657 -150 90 -150 c 0
 67.9199 -150 50 -132.08 50 -110 c 2
 50 -46.5 l 2
 50 -32.1514 58.2393 -18.6846 68.9277 -12.5 c 2
 289.785 116.004 l 2
 295.923 119.556 300.004 126.348 300.004 133.27 c 2
 300.004 466.73 l 2
 300.004 474.383 295.923 480.444 289.785 483.996 c 2
 68.9277 612.5 l 2
 58.2393 618.685 50 632.151 50 646.5 c 2
 50 710 l 2
 50 732.08 67.9199 750 90 750 c 0
 101.657 750 109.679 742.687 119.052 737.5 c 2
 339.504 611.23 l 2
 371.284 593.646 380.004 569.73 380.004 536.73 c 2
 380.004 63.2695 l 2
EndSplineSet
Fore
SplineSet
280.004 6 m 2
 280.004 -27.7305 271.063 -50.5225 239.504 -68.5 c 2
 119.052 -137.5 l 2
 109.679 -142.687 101.657 -150 90 -150 c 0
 67.9199 -150 50 -132.08 50 -110 c 2
 50 -46.5 l 2
 50 -32.1514 58.2393 -18.6846 68.9277 -12.5 c 2
 189.785 58.7344 l 2
 195.923 62.2861 200.004 69.0781 200.004 76 c 2
 200.004 524 l 2
 200.004 531.652 195.923 537.714 189.785 541.266 c 2
 68.9277 612.5 l 2
 58.2393 618.685 50 632.151 50 646.5 c 2
 50 710 l 2
 50 732.08 67.9199 750 90 750 c 0
 101.657 750 109.679 742.687 119.052 737.5 c 2
 239.504 668.5 l 2
 271.284 650.916 280.004 627 280.004 594 c 2
 280.004 6 l 2
EndSplineSet
Validated: 1
EndChar

StartChar: asterisk
Encoding: 42 42 6
Width: 648
Flags: HMW
LayerCount: 2
Back
SplineSet
598 285 m 0
 598 262.92 580.08 245 558 245 c 2
 90 245 l 2
 67.9199 245 50 262.92 50 285 c 0
 50 307.08 50 292.92 50 315 c 0
 50 337.08 67.9199 355 90 355 c 2
 558 355 l 2
 580.08 355 598 337.08 598 315 c 0
 598 292.92 598 307.08 598 285 c 0
182.67 65.209 m 0
 163.548 76.249 156.989 100.729 168.029 119.85 c 2
 402.029 525.15 l 2
 413.068 544.271 437.548 550.831 456.67 539.791 c 0
 475.792 528.751 446.208 545.831 465.33 534.791 c 0
 484.452 523.751 491.011 499.271 479.971 480.15 c 2
 245.971 74.8496 l 2
 234.931 55.7285 210.452 49.1689 191.33 60.209 c 0
 172.208 71.249 201.792 54.1689 182.67 65.209 c 0
456.67 60.209 m 0
 437.548 49.1689 413.069 55.7285 402.029 74.8496 c 2
 168.029 480.15 l 2
 156.989 499.271 163.548 523.751 182.67 534.791 c 0
 201.792 545.831 172.208 528.751 191.33 539.791 c 0
 210.452 550.831 234.931 544.271 245.971 525.15 c 2
 479.971 119.85 l 2
 491.011 100.729 484.452 76.249 465.33 65.209 c 0
 446.208 54.1689 475.792 71.249 456.67 60.209 c 0
EndSplineSet
Fore
SplineSet
419.84 224 m 18
 479.971 119.85 l 2
 491.011 100.729 484.452 76.249 465.33 65.209 c 0
 446.208 54.1689 475.792 71.249 456.67 60.209 c 0
 437.548 49.1689 413.069 55.7285 402.029 74.8496 c 2
 335.259 190.5 l 10
 330.868 198.105 317.132 198.105 312.741 190.5 c 18
 245.971 74.8496 l 2
 234.931 55.7285 210.452 49.1689 191.33 60.209 c 0
 172.208 71.249 201.792 54.1689 182.67 65.209 c 0
 163.548 76.249 156.989 100.729 168.029 119.85 c 2
 228.449 224.5 l 10
 233.23 232.781 224.562 245 215 245 c 18
 90 245 l 2
 67.9199 245 50 262.92 50 285 c 0
 50 307.08 50 292.92 50 315 c 0
 50 337.08 67.9199 355 90 355 c 2
 217 355 l 10
 226.157 355 233.027 367.569 228.449 375.5 c 18
 168.029 480.15 l 2
 156.989 499.271 163.548 523.751 182.67 534.791 c 0
 201.792 545.831 172.208 528.751 191.33 539.791 c 0
 210.452 550.831 234.931 544.271 245.971 525.15 c 2
 312.453 410 l 10
 317.073 401.998 331.505 402.998 336.125 411 c 18
 402.029 525.15 l 2
 413.068 544.271 437.548 550.831 456.67 539.791 c 0
 475.792 528.751 446.208 545.831 465.33 534.791 c 0
 484.452 523.751 491.011 499.271 479.971 480.15 c 2
 418.108 373 l 10
 414.103 366.062 419.989 355 428 355 c 18
 558 355 l 2
 580.08 355 598 337.08 598 315 c 0
 598 292.92 598 307.08 598 285 c 0
 598 262.92 580.08 245 558 245 c 2
 432.5 245 l 10
 422.937 245 415.059 232.281 419.84 224 c 18
EndSplineSet
Validated: 33
EndChar

StartChar: plus
Encoding: 43 43 7
Width: 640
Flags: HMW
LayerCount: 2
Fore
SplineSet
330 45 m 2
 310 45 l 2
 287.92 45 270 62.9199 270 85 c 2
 270 215 l 2
 270 226.04 261.04 235 250 235 c 6
 90 235 l 6
 67.9199 235 50 252.92 50 275 c 6
 50 325 l 6
 50 347.08 67.9199 365 90 365 c 6
 250 365 l 6
 261.04 365 270 373.96 270 385 c 2
 270 515 l 2
 270 537.08 287.92 555 310 555 c 2
 330 555 l 2
 352.08 555 370 537.08 370 515 c 2
 370 385 l 2
 370 373.96 378.96 365 390 365 c 6
 550 365 l 6
 572.08 365 590 347.08 590 325 c 6
 590 275 l 6
 590 252.92 572.08 235 550 235 c 6
 390 235 l 6
 378.96 235 370 226.04 370 215 c 2
 370 85 l 2
 370 62.9199 352.08 45 330 45 c 2
EndSplineSet
Validated: 1
EndChar

StartChar: two
Encoding: 50 50 8
Width: 630
Flags: HMW
LayerCount: 2
Back
SplineSet
579.298 369.834 m 6
 590.338 350.712 583.778 326.232 564.657 315.193 c 2
 109.993 52.6934 l 1026
419.395 346.795 m 2
 424.914 337.234 421.635 324.995 412.073 319.475 c 2
 69.9932 121.975 l 2
 57.0771 114.517 49.9912 100.928 49.9932 87 c 2
 50 40 l 2
 50.0029 17.9199 67.9199 0 90 0 c 2
 540 0 l 2
 562.08 0 580 17.9199 580 40 c 2
 580 110 l 2
 580 132.08 562.08 150 540 150 c 2
 306 150 l 2
 279.667 150 275.107 167.683 290.324 182.944 c 2
 568.72 462.167 l 2
 575.802 469.271 580 479.186 580 490 c 2
 580 560 l 2
 580 582.08 562.08 600 540 600 c 2
 90 600 l 2
 67.9199 600 50 582.08 50 560 c 2
 50 490 l 2
 50 467.92 67.9199 450 90 450 c 2
 395 450 l 2
 421.333 450 425.919 432.291 410.676 417.056 c 1026
EndSplineSet
Fore
SplineSet
334.5 182.5 m 2
 315.835 171.726 323.761 149.938 350.094 150 c 2
 540 150 l 2
 562.08 150 580 132.08 580 110 c 2
 580 40 l 2
 580 17.9199 562.08 0 540 0 c 2
 90 0 l 2
 67.9199 0 50.0029 17.9199 50 40 c 2
 49.9932 87 l 2
 49.9912 100.928 57.0771 114.517 69.9932 121.975 c 2
 486.668 362.001 l 2
 496.231 367.519 500.004 374.961 500.004 386 c 10
 500 430 l 2
 500 441.04 491.04 450 480 450 c 2
 90 450 l 2
 67.9199 450 50 467.92 50 490 c 2
 50 560 l 2
 50 582.08 67.9199 600 90 600 c 2
 540 600 l 2
 562.08 600 580 582.08 580 560 c 2
 580 349 l 2
 580 334.6 573.359 320.388 560.031 312.693 c 2
 334.5 182.5 l 2
EndSplineSet
Validated: 33
EndChar

StartChar: three
Encoding: 51 51 9
Width: 660
Flags: HMW
LayerCount: 2
Fore
SplineSet
435.5 271.932 m 5
 419.887 287.544 419.887 312.887 435.5 328.5 c 1
 524.316 416.317 l 2
 527.842 419.804 530 424.974 530 430 c 0
 530 441.047 521.047 450 510 450 c 2
 120 450 l 2
 97.9219 450 80 467.922 80 490 c 2
 80 560 l 2
 80 582.078 97.9219 600 120 600 c 2
 570 600 l 2
 592.078 600 610 582.078 610 560 c 2
 610 425.984 l 2
 610 401.473 605.055 382.039 589.533 366.635 c 2
 536.75 314.25 l 1
 528.943 306.443 528.943 293.772 536.75 285.966 c 1
 589.533 233.365 l 2
 605.023 217.929 610 198.527 610 174.016 c 2
 610 40 l 2
 610 17.9219 592.078 0 570 0 c 2
 120 0 l 2
 97.9219 0 80 17.9219 80 40 c 2
 80 110 l 2
 80 132.078 97.9219 150 120 150 c 2
 510 150 l 2
 521.047 150 530 158.953 530 170 c 0
 530 175.026 527.834 180.188 524.316 183.683 c 2
 435.5 271.932 l 5
EndSplineSet
Validated: 33
EndChar

StartChar: four
Encoding: 52 52 10
Width: 630
Flags: HMW
LayerCount: 2
Fore
SplineSet
500 565 m 2
 500 587.08 517.92 605 540 605 c 0
 562.08 605 580 587.08 580 565 c 2
 580 35 l 6
 580 12.9199 562.08 -5 540 -5 c 4
 517.92 -5 500 12.9199 500 35 c 6
 500 130 l 2
 500 141.04 491.04 150 480 150 c 2
 90 150 l 2
 67.9199 150 50 167.92 50 190 c 2
 50 565 l 2
 50 587.08 67.9199 605 90 605 c 0
 112.08 605 130 587.08 130 565 c 2
 130 320 l 2
 130 308.96 138.96 300 150 300 c 2
 480 300 l 2
 491.04 300 500 308.96 500 320 c 2
 500 565 l 2
EndSplineSet
Validated: 1
EndChar

StartChar: five
Encoding: 53 53 11
Width: 630
Flags: HMW
LayerCount: 2
Back
SplineSet
420.228 155.097 m 2
 428.034 147.29 428.034 134.618 420.228 126.812 c 2
 140.92 -152.495 l 2
 125.308 -168.108 118.841 -209.063 140.92 -209.063 c 2
 140.92 -231.144 181.876 -224.677 197.489 -209.063 c 2
 568.72 162.167 l 18
 575.812 169.26 580 179.186 580 190 c 2
 580 260 l 2
 580 282.08 562.08 300 540 300 c 2
 150 300 l 2
 138.96 300 130 308.96 130 320 c 2
 130 430 l 2
 130 441.04 138.96 450 150 450 c 2
 540 450 l 2
 562.08 450 580 467.92 580 490 c 2
 580 560 l 2
 580 582.08 562.08 600 540 600 c 2
 90 600 l 2
 67.9199 600 50 582.08 50 560 c 2
 50 190 l 2
 50 167.92 67.9199 150 90 150 c 2
 540 150 l 1026
EndSplineSet
Fore
SplineSet
410.676 117.056 m 6
 425.916 132.294 421.333 150 395 150 c 6
 90 150 l 6
 67.9199 150 50 167.92 50 190 c 6
 50 560 l 2
 50 582.08 67.9199 600 90 600 c 2
 540 600 l 2
 562.08 600 580 582.08 580 560 c 2
 580 490 l 2
 580 467.92 562.08 450 540 450 c 2
 150 450 l 2
 138.96 450 130 441.04 130 430 c 2
 130 320 l 2
 130 308.96 138.96 300 150 300 c 6
 540 300 l 6
 562.08 300 580 282.08 580 260 c 6
 580 190 l 6
 580 179.186 575.812 169.26 568.72 162.167 c 14
 278.569 -128 l 6
 262.956 -143.613 237.601 -143.601 222 -128 c 28
 206.4 -112.4 206.388 -87.0449 222 -71.4316 c 6
 410.676 117.056 l 6
EndSplineSet
Validated: 33
EndChar

StartChar: six
Encoding: 54 54 12
Width: 630
Flags: HMW
LayerCount: 2
Fore
SplineSet
150 450 m 2
 540 450 l 2
 562.08 450 580 432.08 580 410 c 2
 580 40 l 2
 580 17.9199 562.08 0 540 0 c 2
 90 0 l 2
 67.9199 0 50 17.9199 50 40 c 2
 50 565 l 6
 50 587.08 67.9199 605 90 605 c 4
 112.08 605 130 587.08 130 565 c 6
 130 470 l 2
 130 458.96 138.96 450 150 450 c 2
150 150 m 2
 480 150 l 2
 491.04 150 500 158.96 500 170 c 2
 500 280 l 2
 500 291.04 491.04 300 480 300 c 2
 150 300 l 2
 138.96 300 130 291.04 130 280 c 2
 130 170 l 2
 130 158.96 138.96 150 150 150 c 2
EndSplineSet
Validated: 1
EndChar

StartChar: seven
Encoding: 55 55 13
Width: 630
Flags: HMW
LayerCount: 2
Back
SplineSet
315.265 61.0908 m 6
 450.362 432.27 l 6
 454.138 442.645 448.783 454.128 438.409 457.904 c 6
 90 450 l 2
 67.9199 450 50 467.92 50 490 c 2
 50 560 l 2
 50 582.08 67.9199 600 90 600 c 2
 546.094 578.337 l 6
 566.842 570.785 577.552 547.816 570 527.068 c 6
 390.439 33.7295 l 6
 382.888 12.9814 359.92 2.27051 339.171 9.82324 c 4
 318.423 17.375 307.713 40.3428 315.265 61.0908 c 6
EndSplineSet
Fore
SplineSet
310.094 46.2676 m 6
 446.953 424.365 l 6
 450.729 434.74 445.374 446.224 435 450 c 2
 90 450 l 2
 67.9199 450 50 467.92 50 490 c 2
 50 560 l 2
 50 582.08 67.9199 600 90 600 c 2
 554.094 600.269 l 2
 574.842 592.717 585.552 569.748 578 549 c 6
 385.269 18.9062 l 6
 377.717 -1.8418 354.749 -12.5527 334 -5 c 4
 313.252 2.55176 302.542 25.5195 310.094 46.2676 c 6
EndSplineSet
Validated: 33
EndChar

StartChar: eight
Encoding: 56 56 14
Width: 660
Flags: HMW
LayerCount: 2
Fore
SplineSet
120 0 m 2
 97.9219 0 80 17.9219 80 40 c 2
 80 174.016 l 2
 80 198.527 84.9766 217.929 100.467 233.365 c 2
 153.25 285.966 l 1
 161.057 293.772 161.057 306.443 153.25 314.25 c 1
 100.467 366.635 l 2
 84.9453 382.039 80 401.473 80 425.984 c 2
 80 560 l 2
 80 582.078 97.9219 600 120 600 c 2
 570 600 l 2
 592.078 600 610 582.078 610 560 c 2
 610 425.984 l 2
 610 401.473 605.055 382.039 589.533 366.635 c 2
 536.75 314.25 l 1
 528.943 306.443 528.943 293.772 536.75 285.966 c 1
 589.533 233.365 l 2
 605.023 217.929 610 198.527 610 174.016 c 2
 610 40 l 2
 610 17.9219 592.078 0 570 0 c 2
 120 0 l 2
180 150 m 6
 510 150 l 2
 521.047 150 530 158.953 530 170 c 0
 530 175.026 527.834 180.188 524.316 183.683 c 2
 435.5 271.932 l 1
 419.887 287.544 419.887 312.887 435.5 328.5 c 1
 524.316 416.317 l 2
 527.842 419.804 530 424.974 530 430 c 0
 530 441.047 521.047 450 510 450 c 2
 180 450 l 2
 168.953 450 160 441.047 160 430 c 0
 160 424.974 162.158 419.804 165.684 416.317 c 2
 254.5 328.5 l 1
 270.113 312.887 270.113 287.544 254.5 271.932 c 1
 165.684 183.683 l 2
 162.166 180.188 160 175.026 160 170 c 0
 160 158.953 168.953 150 180 150 c 6
EndSplineSet
Validated: 33
EndChar

StartChar: nine
Encoding: 57 57 15
Width: 630
Flags: HMW
LayerCount: 2
Fore
SplineSet
480 150 m 2
 90 150 l 2
 67.9199 150 50 167.92 50 190 c 2
 50 560 l 2
 50 582.08 67.9199 600 90 600 c 2
 540 600 l 2
 562.08 600 580 582.08 580 560 c 2
 580 35 l 6
 580 12.9199 562.08 -5 540 -5 c 4
 517.92 -5 500 12.9199 500 35 c 6
 500 130 l 2
 500 141.04 491.04 150 480 150 c 2
480 450 m 2
 150 450 l 2
 138.96 450 130 441.04 130 430 c 2
 130 320 l 2
 130 308.96 138.96 300 150 300 c 2
 480 300 l 2
 491.04 300 500 308.96 500 320 c 2
 500 430 l 2
 500 441.04 491.04 450 480 450 c 2
EndSplineSet
Validated: 1
EndChar

StartChar: colon
Encoding: 58 58 16
Width: 290
Flags: HMW
LayerCount: 2
Fore
SplineSet
190 0 m 6
 100 0 l 6
 77.9199 0 60 17.9199 60 40 c 6
 60 110 l 6
 60 132.08 77.9199 150 100 150 c 6
 190 150 l 6
 212.08 150 230 132.08 230 110 c 6
 230 40 l 6
 230 17.9199 212.08 0 190 0 c 6
190 350 m 2
 100 350 l 2
 77.9199 350 60 367.92 60 390 c 2
 60 460 l 2
 60 482.08 77.9199 500 100 500 c 2
 190 500 l 2
 212.08 500 230 482.08 230 460 c 2
 230 390 l 2
 230 367.92 212.08 350 190 350 c 2
EndSplineSet
Validated: 1
EndChar

StartChar: semicolon
Encoding: 59 59 17
Width: 290
Flags: HMW
LayerCount: 2
Fore
SplineSet
190 350 m 6
 100 350 l 6
 77.9199 350 60 367.92 60 390 c 6
 60 460 l 6
 60 482.08 77.9199 500 100 500 c 6
 190 500 l 6
 212.08 500 230 482.08 230 460 c 6
 230 390 l 6
 230 367.92 212.08 350 190 350 c 6
150 -60 m 2
 150 -20 l 2
 150 -8.95996 141.04 0 130 0 c 2
 100 0 l 2
 77.9199 0 60 17.9199 60 40 c 2
 60 110 l 2
 60 132.08 77.9199 150 100 150 c 2
 190 150 l 2
 212.08 150 230 132.08 230 110 c 2
 230 -60 l 2
 230 -82.0801 212.08 -100 190 -100 c 0
 167.92 -100 150 -82.0801 150 -60 c 2
EndSplineSet
Validated: 1
EndChar

StartChar: less
Encoding: 60 60 18
Width: 470
Flags: HMW
LayerCount: 2
Fore
SplineSet
367.18 515.432 m 6
 210.201 358.453 l 6
 202.396 350.647 202.396 337.976 210.201 330.169 c 6
 408.191 132.18 l 6
 423.805 116.566 423.805 91.2236 408.191 75.6113 c 6
 358.694 26.1133 l 6
 343.081 10.5 317.738 10.5 302.125 26.1133 c 6
 61.709 266.529 l 6
 46.0967 282.143 46.0967 307.485 61.709 323.099 c 6
 310.61 572 l 6
 326.224 587.613 351.566 587.613 367.18 572 c 4
 382.792 556.387 382.792 531.044 367.18 515.432 c 6
EndSplineSet
Validated: 33
EndChar

StartChar: equal
Encoding: 61 61 19
Width: 640
Flags: HMW
LayerCount: 2
Back
SplineSet
90 365 m 2
 67.9199 365 50 347.08 50 325 c 2
 50 275 l 2
 50 252.92 67.9199 235 90 235 c 2
 550 235 l 2
 572.08 235 590 252.92 590 275 c 2
 590 325 l 2
 590 347.08 572.08 365 550 365 c 2
 90 365 l 2
EndSplineSet
Fore
SplineSet
90 236 m 6
 550 236 l 6
 572.08 236 590 218.08 590 196 c 6
 590 146 l 6
 590 123.92 572.08 106 550 106 c 6
 90 106 l 6
 67.9199 106 50 123.92 50 146 c 6
 50 196 l 6
 50 218.08 67.9199 236 90 236 c 6
90 494 m 2
 550 494 l 2
 572.08 494 590 476.08 590 454 c 2
 590 404 l 2
 590 381.92 572.08 364 550 364 c 2
 90 364 l 2
 67.9199 364 50 381.92 50 404 c 2
 50 454 l 2
 50 476.08 67.9199 494 90 494 c 2
EndSplineSet
Validated: 1
EndChar

StartChar: greater
Encoding: 62 62 20
Width: 469
Flags: HMW
LayerCount: 2
Fore
SplineSet
102.722 82.6816 m 6
 259.7 239.66 l 6
 267.506 247.466 267.506 260.138 259.7 267.944 c 6
 61.71 465.934 l 6
 46.0967 481.547 46.0967 506.89 61.71 522.502 c 6
 111.207 572 l 6
 126.82 587.613 152.163 587.613 167.776 572 c 6
 408.192 331.584 l 6
 423.805 315.971 423.805 290.628 408.192 275.015 c 6
 159.291 26.1133 l 6
 143.678 10.5 118.335 10.5 102.722 26.1133 c 4
 87.1094 41.7266 87.1094 67.0693 102.722 82.6816 c 6
EndSplineSet
Validated: 33
EndChar

StartChar: bracketright
Encoding: 93 93 21
Width: 330
Flags: HMW
LayerCount: 2
Fore
SplineSet
280 -60 m 6
 280 -82.0801 262.08 -100 240 -100 c 6
 90 -100 l 2
 67.9199 -100 50 -82.0801 50 -60 c 2
 50 10 l 2
 50 32.0801 67.9199 50 90 50 c 2
 180 50 l 6
 191.04 50 200 58.96 200 70 c 6
 200 530 l 6
 200 541.04 191.04 550 180 550 c 6
 90 550 l 2
 67.9199 550 50 567.92 50 590 c 2
 50 660 l 2
 50 682.08 67.9199 700 90 700 c 2
 240 700 l 6
 262.08 700 280 682.08 280 660 c 6
 280 -60 l 6
EndSplineSet
Validated: 1
EndChar

StartChar: grave
Encoding: 96 96 22
Width: 290
Flags: HMW
LayerCount: 2
Fore
SplineSet
140 710 m 6
 140 670 l 6
 140 658.96 148.96 650 160 650 c 6
 190 650 l 6
 212.08 650 230 632.08 230 610 c 6
 230 540 l 6
 230 517.92 212.08 500 190 500 c 6
 100 500 l 6
 77.9199 500 60 517.92 60 540 c 6
 60 710 l 6
 60 732.08 77.9199 750 100 750 c 4
 122.08 750 140 732.08 140 710 c 6
EndSplineSet
Validated: 1
EndChar

StartChar: afii57685
Encoding: 1509 1509 23
Width: 670
Flags: HMW
LayerCount: 2
Back
SplineSet
250 46 m 1
 250 -160 l 2
 250 -182.078 232.078 -200 210 -200 c 0
 187.922 -200 170 -182.078 170 -160 c 2
 170 430 l 2
 170 441.047 161.047 450 150 450 c 2
 90 450 l 2
 67.9219 450 50 467.922 50 490 c 2
 50 560 l 2
 50 582.078 67.9219 600 90 600 c 2
 210 600 l 2
 232.078 600 250 582.078 250 560 c 2
 250 205.804 l 1
 459.781 327.547 l 2
 465.922 331.094 470 337.891 470 344.812 c 2
 470 430 l 2
 470 441.047 461.047 450 450 450 c 2
 390 450 l 2
 367.922 450 350 467.922 350 490 c 2
 350 560 l 2
 350 582.078 367.922 600 390 600 c 2
 510 600 l 2
 532.078 600 550 582.078 550 560 c 2
 550 271.193 l 6
 550 238.193 540.909 214.933 509.5 196.693 c 2
 250 46 l 1
EndSplineSet
Fore
SplineSet
250 33.1875 m 1
 250 -160 l 2
 250 -182.078 232.078 -200 210 -200 c 0
 187.922 -200 170 -182.078 170 -160 c 2
 170 430 l 2
 170 441.047 161.047 450 150 450 c 2
 90 450 l 2
 67.9219 450 50 467.922 50 490 c 2
 50 560 l 2
 50 582.078 67.9219 600 90 600 c 2
 210 600 l 2
 232.078 600 250 582.078 250 560 c 2
 250 192.991 l 1
 529.781 314.734 l 2
 535.922 318.281 540 325.078 540 332 c 2
 540 430 l 2
 540 441.047 531.047 450 520 450 c 2
 460 450 l 2
 437.922 450 420 467.922 420 490 c 2
 420 560 l 2
 420 582.078 437.922 600 460 600 c 2
 580 600 l 2
 602.078 600 620 582.078 620 560 c 2
 620 258.381 l 2
 620 225.381 610.909 202.12 579.5 183.881 c 2
 250 33.1875 l 1
EndSplineSet
Validated: 1
EndChar

StartChar: afii57686
Encoding: 1510 1510 24
Width: 640
Flags: HMW
LayerCount: 2
Back
SplineSet
383 236.041 m 1
 509.5 309.5 l 2
 540.909 327.739 550 351 550 384 c 2
 550 560 l 2
 550 582.078 532.078 600 510 600 c 2
 390 600 l 2
 367.922 600 350 582.078 350 560 c 2
 350 490 l 2
 350 467.922 367.922 450 390 450 c 2
 450 450 l 2
 461.047 450 470 441.047 470 430 c 2
 470 391.619 l 2
 470 384.697 465.922 377.9 459.781 374.354 c 2
 331 299.617 l 1
 383 236.041 l 1
372 150 m 2
 90 150 l 2
 67.9199 150 50 132.08 50 110 c 2
 50 40 l 2
 50 17.9199 67.9199 0 90 0 c 2
 510 0 l 2
 532.08 0 550 17.9199 550 40 c 2
 550 183 l 2
 550 197.694 552.856 200.113 541 207 c 6
 241 370 l 2
 234.868 373.562 250 384.697 250 391.619 c 2
 250 560 l 2
 250 582.078 232.078 600 210 600 c 2
 90 600 l 2
 67.9219 600 50 582.078 50 560 c 2
 50 490 l 2
 50 467.922 67.9219 450 90 450 c 2
 150 450 l 2
 161.047 450 170 441.047 170 430 c 2
 170 349.193 l 2
 170 316.193 179.091 292.933 210.5 274.693 c 2
 378 177.425 l 2
 394.806 167.666 391 150 372 150 c 2
EndSplineSet
Fore
SplineSet
464 259.5 m 1
 570.25 200.875 l 2
 582.109 194 590 181.078 590 166.375 c 2
 590 40 l 2
 590 17.9219 572.078 0 550 0 c 2
 110 0 l 2
 87.9219 0 70 17.9219 70 40 c 2
 70 110 l 2
 70 132.078 87.9219 150 110 150 c 2
 412 150 l 2
 431 150 434.812 167.672 418 177.422 c 2
 210.5 285.5 l 2
 179.094 303.734 170 327 170 360 c 2
 170 430 l 2
 170 441.047 161.047 450 150 450 c 2
 90 450 l 2
 67.9219 450 50 467.922 50 490 c 2
 50 560 l 2
 50 582.078 67.9219 600 90 600 c 2
 210 600 l 2
 232.078 600 250 582.078 250 560 c 2
 250 388 l 2
 250 381.078 254.094 374.297 260.219 370.734 c 2
 380 305 l 1
 499.781 374.359 l 2
 505.922 377.906 510 384.703 510 391.625 c 2
 510 430 l 2
 510 441.047 501.047 450 490 450 c 2
 430 450 l 2
 407.922 450 390 467.922 390 490 c 2
 390 560 l 2
 390 582.078 407.922 600 430 600 c 2
 550 600 l 2
 572.078 600 590 582.078 590 560 c 2
 590 384 l 2
 590 351 580.906 327.734 549.5 309.5 c 2
 464 259.5 l 1
EndSplineSet
Validated: 1
EndChar

StartChar: afii57687
Encoding: 1511 1511 25
Width: 640
Flags: HMW
LayerCount: 2
Fore
SplineSet
90 -200 m 4
 67.9199 -200 50 -182.08 50 -160 c 6
 50 308 l 6
 50 330.08 67.9199 348 90 348 c 4
 112.08 348 77.9199 348 100 348 c 4
 122.08 348 140 330.08 140 308 c 6
 140 -160 l 6
 140 -182.08 122.08 -200 100 -200 c 4
 77.9199 -200 112.08 -200 90 -200 c 4
590 40 m 2
 590 17.9199 572.08 0 550 0 c 2
 290 0 l 2
 267.92 0 250 17.9199 250 40 c 2
 250 110 l 2
 250 132.08 267.92 150 290 150 c 2
 490 150 l 2
 501.04 150 510 158.96 510 170 c 2
 510 430 l 2
 510 441.04 501.04 450 490 450 c 2
 90 450 l 2
 67.9199 450 50 467.92 50 490 c 2
 50 560 l 2
 50 582.08 67.9199 600 90 600 c 2
 550 600 l 2
 572.08 600 590 582.08 590 560 c 2
 590 40 l 2
EndSplineSet
Validated: 1
EndChar

StartChar: afii57688
Encoding: 1512 1512 26
Width: 620
Flags: HMW
LayerCount: 2
Fore
SplineSet
490 35 m 6
 490 430 l 2
 490 441.04 481.04 450 470 450 c 2
 90 450 l 2
 67.9199 450 50 467.92 50 490 c 2
 50 560 l 2
 50 582.08 67.9199 600 90 600 c 2
 530 600 l 2
 552.08 600 570 582.08 570 560 c 2
 570 35 l 6
 570 12.9199 552.08 -5 530 -5 c 4
 507.92 -5 490 12.9199 490 35 c 6
EndSplineSet
Validated: 1
EndChar

StartChar: afii57689
Encoding: 1513 1513 27
Width: 740
Flags: HMW
LayerCount: 2
Fore
SplineSet
370 290 m 2
 370 430 l 2
 370 441.04 361.04 450 350 450 c 2
 330 450 l 2
 307.92 450 290 467.92 290 490 c 2
 290 560 l 2
 290 582.08 307.92 600 330 600 c 2
 410 600 l 2
 432.08 600 450 582.08 450 560 c 2
 450 290 l 2
 450 267.92 432.08 250 410 250 c 0
 387.92 250 370 267.92 370 290 c 2
650 0 m 6
 90 0 l 2
 67.9199 0 50 17.9199 50 40 c 2
 50 560 l 2
 50 582.08 67.9199 600 90 600 c 2
 170 600 l 2
 192.08 600 210 582.08 210 560 c 2
 210 490 l 2
 210 467.92 192.08 450 170 450 c 2
 150 450 l 2
 138.96 450 130 441.04 130 430 c 2
 130 170 l 2
 130 158.96 138.96 150 150 150 c 2
 590 150 l 6
 601.04 150 610 158.96 610 170 c 6
 610 430 l 6
 610 441.04 601.04 450 590 450 c 6
 570 450 l 2
 547.92 450 530 467.92 530 490 c 2
 530 560 l 2
 530 582.08 547.92 600 570 600 c 2
 650 600 l 6
 672.08 600 690 582.08 690 560 c 6
 690 40 l 6
 690 17.9199 672.08 0 650 0 c 6
EndSplineSet
Validated: 1
EndChar

StartChar: afii57690
Encoding: 1514 1514 28
Width: 690
Flags: HMW
LayerCount: 2
Fore
SplineSet
540 450 m 2
 240 450 l 2
 228.96 450 220 441.04 220 430 c 2
 220 40 l 2
 220 17.9199 202.08 0 180 0 c 2
 90 0 l 2
 67.9199 0 50 17.9199 50 40 c 2
 50 110 l 2
 50 132.08 67.9199 150 90 150 c 2
 120 150 l 2
 131.04 150 140 158.96 140 170 c 2
 140 430 l 2
 140 441.04 131.04 450 120 450 c 2
 110 450 l 2
 87.9199 450 70 467.92 70 490 c 2
 70 560 l 2
 70 582.08 87.9199 600 110 600 c 2
 600 600 l 2
 622.08 600 640 582.08 640 560 c 2
 640 35 l 6
 640 12.9199 622.08 -5 600 -5 c 4
 577.92 -5 560 12.9199 560 35 c 6
 560 430 l 2
 560 441.04 551.04 450 540 450 c 2
EndSplineSet
Validated: 1
EndChar

StartChar: uniF001
Encoding: 61441 61441 29
Width: 640
Flags: HMW
LayerCount: 2
Fore
SplineSet
90 -400 m 0
 67.9199 -400 50 -382.08 50 -360 c 2
 50 760 l 2
 50 782.08 67.9199 800 90 800 c 0
 112.08 800 77.9199 800 100 800 c 0
 122.08 800 140 782.08 140 760 c 2
 140 -360 l 2
 140 -382.08 122.08 -400 100 -400 c 0
 77.9199 -400 112.08 -400 90 -400 c 0
EndSplineSet
Validated: 1
EndChar

StartChar: quotesingle
Encoding: 39 39 31
Width: 290
Flags: HMW
LayerCount: 2
Fore
SplineSet
150 540 m 6
 150 580 l 6
 150 591.04 141.04 600 130 600 c 6
 100 600 l 6
 77.9199 600 60 617.92 60 640 c 6
 60 710 l 6
 60 732.08 77.9199 750 100 750 c 6
 190 750 l 6
 212.08 750 230 732.08 230 710 c 6
 230 540 l 6
 230 517.92 212.08 500 190 500 c 4
 167.92 500 150 517.92 150 540 c 6
EndSplineSet
Validated: 1
EndChar

StartChar: comma
Encoding: 44 44 32
Width: 290
Flags: HMW
LayerCount: 2
Fore
SplineSet
150 -60 m 2
 150 -20 l 2
 150 -8.95996 141.04 0 130 0 c 2
 100 0 l 6
 77.9199 0 60 17.9199 60 40 c 6
 60 110 l 6
 60 132.08 77.9199 150 100 150 c 6
 190 150 l 2
 212.08 150 230 132.08 230 110 c 2
 230 -60 l 2
 230 -82.0801 212.08 -100 190 -100 c 0
 167.92 -100 150 -82.0801 150 -60 c 2
EndSplineSet
Validated: 1
EndChar

StartChar: hyphen
Encoding: 45 45 33
Width: 640
Flags: HMW
LayerCount: 2
Fore
SplineSet
90 365 m 2
 550 365 l 2
 572.08 365 590 347.08 590 325 c 2
 590 275 l 2
 590 252.92 572.08 235 550 235 c 2
 90 235 l 2
 67.9199 235 50 252.92 50 275 c 2
 50 325 l 2
 50 347.08 67.9199 365 90 365 c 2
EndSplineSet
Validated: 1
EndChar

StartChar: period
Encoding: 46 46 34
Width: 290
Flags: HMW
LayerCount: 2
Fore
SplineSet
190 0 m 2
 100 0 l 2
 77.9199 0 60 17.9199 60 40 c 2
 60 110 l 2
 60 132.08 77.9199 150 100 150 c 2
 190 150 l 2
 212.08 150 230 132.08 230 110 c 2
 230 40 l 2
 230 17.9199 212.08 0 190 0 c 2
EndSplineSet
Validated: 1
EndChar

StartChar: slash
Encoding: 47 47 35
Width: 402
Flags: HMW
LayerCount: 2
Back
SplineSet
385.269 -31.0938 m 2
 377.736 -51.8496 354.749 -62.5527 334 -55 c 0
 313.252 -47.4482 302.562 -24.4873 310.094 -3.73242 c 2
 639.685 904.459 l 2
 647.217 925.215 670.204 935.918 690.953 928.365 c 4
 711.701 920.813 722.392 897.853 714.859 877.098 c 2
 385.269 -31.0938 l 2
EndSplineSet
Fore
SplineSet
132.239 -33.8652 m 6
 124.711 -54.623 98.3525 -64.0986 73.4531 -55.0352 c 4
 48.5557 -45.9736 34.5029 -21.7881 42.0303 -1.03125 c 6
 269.974 628.865 l 6
 277.503 649.622 303.86 659.099 328.76 650.035 c 4
 353.657 640.974 367.712 616.788 360.183 596.031 c 6
 132.239 -33.8652 l 6
EndSplineSet
Validated: 524321
EndChar

StartChar: zero
Encoding: 48 48 36
Width: 630
Flags: HMW
LayerCount: 2
Fore
SplineSet
90 0 m 2
 67.9199 0 50 17.9199 50 40 c 2
 50 560 l 2
 50 582.08 67.9199 600 90 600 c 2
 540 600 l 2
 562.08 600 580 582.08 580 560 c 2
 580 40 l 2
 580 17.9199 562.08 0 540 0 c 2
 90 0 l 2
150 150 m 2
 480 150 l 2
 491.04 150 500 158.96 500 170 c 2
 500 430 l 2
 500 441.04 491.04 450 480 450 c 2
 150 450 l 2
 138.96 450 130 441.04 130 430 c 2
 130 170 l 2
 130 158.96 138.96 150 150 150 c 2
EndSplineSet
Validated: 1
EndChar

StartChar: one
Encoding: 49 49 37
Width: 560
Flags: HMW
LayerCount: 2
Fore
SplineSet
250 430 m 2
 250 441.04 241.04 450 230 450 c 2
 120 450 l 2
 97.9199 450 80 467.92 80 490 c 6
 80 560 l 6
 80 582.08 97.9199 600 120 600 c 6
 290 600 l 2
 312.08 600 330 582.08 330 560 c 2
 330 170 l 2
 330 158.96 338.96 150 350 150 c 2
 470 150 l 2
 492.08 150 510 132.08 510 110 c 2
 510 40 l 2
 510 17.9199 492.08 0 470 0 c 2
 90 0 l 2
 67.9199 0 50 17.9199 50 40 c 2
 50 110 l 2
 50 132.08 67.9199 150 90 150 c 2
 230 150 l 2
 241.04 150 250 158.96 250 170 c 2
 250 430 l 2
EndSplineSet
Validated: 1
EndChar

StartChar: question
Encoding: 63 63 38
Width: 600
Flags: HMW
LayerCount: 2
Back
SplineSet
475 -118 m 2
 335 -118 l 2
 323.96 -118 315 -126.96 315 -138 c 0
 315 -160.08 297.08 -178 275 -178 c 2
 205 -178 l 2
 182.92 -178 165 -160.08 165 -138 c 2
 165 -78 l 2
 165 -55.9199 182.92 -38 205 -38 c 2
 475 -38 l 2
 497.08 -38 515 -55.9199 515 -78 c 0
 515 -100.08 497.08 -118 475 -118 c 2
200 250 m 2
 177.92 250 160 267.938 160 290 c 24
 160 312.062 177.92 330 200 330 c 2
 450 330 l 2
 461.04 330 470 338.96 470 350 c 2
 470 480 l 2
 470 491.04 461.04 500 450 500 c 2
 90 500 l 2
 67.9199 500 50 517.92 50 540 c 2
 50 610 l 2
 50 632.08 67.9199 650 90 650 c 2
 510 650 l 2
 532.08 650 550 632.08 550 610 c 2
 550 290 l 2
 550 267.92 532.08 250 510 250 c 2
 200 250 l 2
290 0 m 2
 200 0 l 2
 177.92 0 160 17.9199 160 40 c 2
 160 110 l 2
 160 132.08 177.92 150 200 150 c 2
 290 150 l 2
 312.08 150 330 132.08 330 110 c 2
 330 40 l 2
 330 17.9199 312.08 0 290 0 c 2
EndSplineSet
Fore
SplineSet
510 250 m 6
 350 250 l 6
 318.411 250 321.5 225 290 225 c 6
 200 225 l 6
 177.92 225 160 242.92 160 265 c 6
 160 290 l 6
 160 312.08 177.92 330 200 330 c 6
 450 330 l 6
 461.04 330 470 338.96 470 350 c 6
 470 480 l 6
 470 491.04 461.04 500 450 500 c 6
 90 500 l 6
 67.9199 500 50 517.92 50 540 c 6
 50 610 l 6
 50 632.08 67.9199 650 90 650 c 6
 510 650 l 6
 532.08 650 550 632.08 550 610 c 6
 550 290 l 6
 550 267.92 532.08 250 510 250 c 6
290 0 m 6
 200 0 l 6
 177.92 0 160 17.9199 160 40 c 6
 160 110 l 6
 160 132.08 177.92 150 200 150 c 6
 290 150 l 6
 312.08 150 330 132.08 330 110 c 6
 330 40 l 6
 330 17.9199 312.08 0 290 0 c 6
EndSplineSet
Validated: 1
EndChar

StartChar: bracketleft
Encoding: 91 91 39
Width: 330
Flags: HMW
LayerCount: 2
Fore
SplineSet
50 660 m 6
 50 682.08 67.9199 700 90 700 c 6
 240 700 l 2
 262.08 700 280 682.08 280 660 c 2
 280 590 l 2
 280 567.92 262.08 550 240 550 c 2
 150 550 l 6
 138.96 550 130 541.04 130 530 c 6
 130 70 l 6
 130 58.96 138.96 50 150 50 c 6
 240 50 l 2
 262.08 50 280 32.0801 280 10 c 2
 280 -60 l 2
 280 -82.0801 262.08 -100 240 -100 c 2
 90 -100 l 6
 67.9199 -100 50 -82.0801 50 -60 c 6
 50 660 l 6
EndSplineSet
Validated: 1
EndChar

StartChar: backslash
Encoding: 92 92 40
Width: 402
Flags: HMW
LayerCount: 2
Fore
SplineSet
269.974 -33.8652 m 6
 42.0312 596.031 l 6
 34.502 616.788 48.5557 640.974 73.4541 650.035 c 4
 98.3525 659.099 124.711 649.622 132.24 628.865 c 6
 360.183 -1.03125 l 6
 367.711 -21.7881 353.658 -45.9736 328.76 -55.0352 c 4
 303.861 -64.0986 277.503 -54.623 269.974 -33.8652 c 6
EndSplineSet
Validated: 524321
EndChar

StartChar: afii57664
Encoding: 1488 1488 41
Width: 662
Flags: HMW
LayerCount: 2
Back
SplineSet
482 234 m 1
 594 125 l 2
 607.844 111.531 612.375 100.672 612.375 79.3281 c 10
 612.375 28.3281 l 18
 612.375 9.32812 602 0 584.672 0 c 0
 573.234 0 562.578 6.9375 554.672 14 c 2
 164.234 391.75 l 6
 160.422 395.156 155.516 397.5 150 397.5 c 4
 138.953 397.5 130 388.875 130 377.5 c 14
 130 170 l 18
 130 158.953 138.953 150 150 150 c 10
 180 150 l 18
 202.078 150 220 132.078 220 110 c 10
 220 40 l 18
 220 17.9219 202.078 0 180 0 c 10
 90 0 l 18
 67.9219 0 50 17.9219 50 40 c 2
 50 560 l 2
 50 582.078 67.9219 600 90 600 c 0
 101.438 600 110.875 595.125 118.375 587.625 c 2
 425.998 288.666 l 1
 526.316 389.333 l 2
 529.817 392.846 532 397.99 532 403.016 c 2
 532 430 l 2
 532 441.047 523.047 450 512 450 c 2
 440 450 l 2
 417.922 450 400 467.922 400 490 c 2
 400 560 l 2
 400 582.078 417.922 600 440 600 c 2
 572 600 l 2
 594.078 600 612 582.078 612 560 c 2
 612 399 l 2
 612 374.489 607.268 354.839 591.533 339.651 c 2
 482 234 l 1
EndSplineSet
Fore
SplineSet
489 240.9 m 5
 594 142.672 l 2
 607.788 129.773 612.375 118.344 612.375 97 c 10
 612.375 23.3281 l 18
 612.375 4.32812 602 -5 584.672 -5 c 0
 573.234 -5 562.161 2.08984 554.672 9 c 2
 164.234 369.25 l 2
 160.12 373.046 155.516 375 150 375 c 0
 138.953 375 130 366.375 130 355 c 10
 130 170 l 18
 130 158.953 138.953 150 150 150 c 10
 180 150 l 18
 202.078 150 220 132.078 220 110 c 10
 220 40 l 18
 220 17.9219 202.078 0 180 0 c 10
 90 0 l 18
 67.9219 0 50 17.9219 50 40 c 2
 50 560 l 2
 50 582.078 67.9219 600 90 600 c 0
 101.438 600 110.264 595.213 118.375 587.625 c 2
 431 295.16 l 5
 526.316 389.333 l 6
 529.844 392.818 532 397.99 532 403.016 c 6
 532 430 l 6
 532 441.047 523.047 450 512 450 c 6
 440 450 l 6
 417.922 450 400 467.922 400 490 c 6
 400 560 l 6
 400 582.078 417.922 600 440 600 c 6
 572 600 l 6
 594.078 600 612 582.078 612 560 c 6
 612 399 l 6
 612 374.489 607.284 354.821 591.533 339.651 c 6
 489 240.9 l 5
EndSplineSet
Validated: 1
EndChar

StartChar: afii57665
Encoding: 1489 1489 42
Width: 700
Flags: HMW
LayerCount: 2
Back
SplineSet
0 600 m 25
 500 600 l 25
 500 150 l 25
 600 150 l 25
 600 0 l 25
 0 0 l 25
 0 150 l 25
 420 150 l 25
 420 450 l 25
 0 450 l 25
 0 600 l 25
EndSplineSet
Fore
SplineSet
560 560 m 2
 560 170 l 2
 560 158.96 568.96 150 580 150 c 2
 610 150 l 2
 632.08 150 650 132.08 650 110 c 2
 650 40 l 2
 650 17.9199 632.08 0 610 0 c 2
 90 0 l 2
 67.9199 0 50 17.9199 50 40 c 2
 50 110 l 2
 50 132.08 67.9199 150 90 150 c 2
 460 150 l 2
 471.04 150 480 158.96 480 170 c 2
 480 430 l 2
 480 441.04 471.04 450 460 450 c 2
 90 450 l 2
 67.9199 450 50 467.92 50 490 c 2
 50 560 l 2
 50 582.08 67.9199 600 90 600 c 2
 520 600 l 2
 542.08 600 560 582.08 560 560 c 2
EndSplineSet
Validated: 1
EndChar

StartChar: afii57666
Encoding: 1490 1490 43
Width: 440
Flags: HMW
LayerCount: 2
Back
SplineSet
68.9277 137.5 m 2
 57.6406 130.326 50 117.849 50 103.5 c 2
 50 40 l 2
 50 17.9199 67.9199 0 90 0 c 0
 101.657 1.27157e-06 110.726 6.37225 119.052 12.5 c 2
 231.625 87.5 l 2
 240.164 93.7842 249.233 100 260.664 100 c 1
 279.333 100 290 89.6667 290 69.6641 c 2
 290 40 l 2
 290 17.9199 307.938 2.70167e-15 330 0 c 24
 352.062 -0 370 17.9199 370 40 c 2
 370 560 l 2
 370 582.08 352.08 600 330 600 c 2
 180 600 l 2
 157.92 600 140 582.08 140 560 c 2
 140 490 l 2
 140 467.92 157.92 450 180 450 c 2
 270 450 l 2
 281.04 450 290 441.04 290 430 c 2
 290 289 l 2
 290 281.825 286.18 275.587 280.536 272 c 2
 68.9277 137.5 l 2
EndSplineSet
Fore
SplineSet
68.9277 132.5 m 6
 291.005 261.004 l 6
 304.207 268.643 310 278 310 294.666 c 2
 310 430 l 2
 310 441.04 301.04 450 290 450 c 2
 180 450 l 2
 157.92 450 140 467.92 140 490 c 2
 140 560 l 2
 140 582.08 157.92 600 180 600 c 2
 350 600 l 2
 372.08 600 390 582.08 390 560 c 2
 390 35 l 2
 390 12.9199 372.062 -5 350 -5 c 24
 327.938 -5 310 12.9199 310 35 c 2
 310 75.333 l 2
 310 90.667 301.667 99.335 286.668 99.335 c 0
 278 99.335 270.513 94.1025 260.999 88.6631 c 6
 119.052 7.5 l 6
 109.752 2.18262 101.657 -5 90 -5 c 4
 67.9199 -5 50 12.9199 50 35 c 6
 50 98.5 l 6
 50 112.849 58.2393 126.315 68.9277 132.5 c 6
EndSplineSet
Validated: 1
EndChar

StartChar: afii57667
Encoding: 1491 1491 44
Width: 670
Flags: HMW
LayerCount: 2
Fore
SplineSet
440 35 m 6
 440 430 l 2
 440 441.04 431.04 450 420 450 c 2
 90 450 l 2
 67.9199 450 50 467.92 50 490 c 2
 50 560 l 2
 50 582.08 67.9199 600 90 600 c 2
 580 600 l 2
 602.08 600 620 582.08 620 560 c 2
 620 490 l 2
 620 467.92 602.08 450 580 450 c 2
 540 450 l 2
 528.96 450 520 441.04 520 430 c 2
 520 35 l 6
 520 12.9199 502.08 -5 480 -5 c 4
 457.92 -5 440 12.9199 440 35 c 6
EndSplineSet
Validated: 1
EndChar

StartChar: afii57668
Encoding: 1492 1492 45
Width: 650
Flags: HMW
LayerCount: 2
Fore
SplineSet
130 260 m 6
 130 170 l 6
 130 158.96 138.96 150 150 150 c 6
 180 150 l 2
 202.08 150 220 132.08 220 110 c 2
 220 40 l 2
 220 17.9199 202.08 0 180 0 c 2
 90 0 l 6
 67.9199 0 50 17.9199 50 40 c 6
 50 260 l 6
 50 282.08 67.9199 300 90 300 c 4
 112.08 300 130 282.08 130 260 c 6
520 35 m 2
 520 430 l 2
 520 441.04 511.04 450 500 450 c 2
 90 450 l 2
 67.9199 450 50 467.92 50 490 c 2
 50 560 l 2
 50 582.08 67.9199 600 90 600 c 2
 560 600 l 2
 582.08 600 600 582.08 600 560 c 2
 600 35 l 2
 600 12.9199 582.08 -5 560 -5 c 0
 537.92 -5 520 12.9199 520 35 c 2
EndSplineSet
Validated: 1
EndChar

StartChar: afii57669
Encoding: 1493 1493 46
Width: 350
Flags: HMW
LayerCount: 2
Fore
SplineSet
220 35 m 6
 220 430 l 6
 220 441.04 211.04 450 200 450 c 2
 90 450 l 2
 67.9199 450 50 467.92 50 490 c 2
 50 560 l 2
 50 582.08 67.9199 600 90 600 c 2
 260 600 l 2
 282.08 600 300 582.08 300 560 c 6
 300 35 l 6
 300 12.9199 282.08 -5 260 -5 c 4
 237.92 -5 220 12.9199 220 35 c 6
EndSplineSet
Validated: 1
EndChar

StartChar: afii57670
Encoding: 1494 1494 47
Width: 400
Flags: HMW
LayerCount: 2
Fore
SplineSet
170 35 m 6
 170 430 l 2
 170 441.04 161.04 450 150 450 c 2
 90 450 l 2
 67.9199 450 50 467.92 50 490 c 2
 50 560 l 2
 50 582.08 67.9199 600 90 600 c 2
 310 600 l 2
 332.08 600 350 582.08 350 560 c 2
 350 490 l 2
 350 467.92 332.08 450 310 450 c 2
 270 450 l 2
 258.96 450 250 441.04 250 430 c 2
 250 35 l 6
 250 12.9199 232.08 -5 210 -5 c 4
 187.92 -5 170 12.9199 170 35 c 6
EndSplineSet
Validated: 1
EndChar

StartChar: afii57671
Encoding: 1495 1495 48
Width: 650
Flags: HMW
LayerCount: 2
Fore
SplineSet
90 600 m 2
 560 600 l 2
 582.08 600 600 582.08 600 560 c 2
 600 35 l 6
 600 12.9199 582.08 -5 560 -5 c 4
 537.92 -5 520 12.9199 520 35 c 6
 520 430 l 2
 520 441.04 511.04 450 500 450 c 2
 150 450 l 2
 138.96 450 130 441.04 130 430 c 2
 130 35 l 6
 130 12.9199 112.08 -5 90 -5 c 4
 67.9199 -5 50 12.9199 50 35 c 6
 50 560 l 2
 50 582.08 67.9199 600 90 600 c 2
EndSplineSet
Validated: 1
EndChar

StartChar: afii57672
Encoding: 1496 1496 49
Width: 680
Flags: HMW
LayerCount: 2
Back
SplineSet
240 401 m 6
 240 478 l 2
 240 505.576 246.939 523.437 269.253 536 c 2
 345.626 579 l 2
 367.796 591.482 387.57 600 415.002 600 c 2
 560 600 l 2
 582.08 600 600 582.08 600 560 c 2
 600 40 l 2
 600 17.9199 582.08 0 560 0 c 2
 90 0 l 2
 67.9199 0 50 17.9199 50 40 c 2
 50 560 l 2
 50 582.08 67.9199 600 90 600 c 2
 170 600 l 2
 192.08 600 210 582.08 210 560 c 2
 210 490 l 2
 210 467.92 192.08 450 170 450 c 2
 150 450 l 2
 138.96 450 130 441.04 130 430 c 2
 130 170 l 2
 130 158.96 138.96 150 150 150 c 2
 500 150 l 2
 511.04 150 520 158.96 520 170 c 2
 520 430 l 2
 520 441.04 511.04 450 500 450 c 2
 448 450 l 2
 420.568 450 399.68 442.923 378.624 429 c 2
 279 376.126 l 6
 256.745 361.41 240 376 240 401 c 6
EndSplineSet
Fore
SplineSet
305 413 m 2
 305 490 l 2
 305 517.576 311.939 535.437 334.253 548 c 2
 389.879 579 l 2
 412.049 591.482 431.823 600 459.255 600 c 2
 590 600 l 2
 612.08 600 630 582.08 630 560 c 2
 630 40 l 2
 630 17.9199 612.08 0 590 0 c 2
 90 0 l 2
 67.9199 0 50 17.9199 50 40 c 2
 50 560 l 2
 50 582.08 67.9199 600 90 600 c 2
 170 600 l 2
 192.08 600 210 582.08 210 560 c 2
 210 490 l 2
 210 467.92 192.08 450 170 450 c 2
 150 450 l 2
 138.96 450 130 441.04 130 430 c 2
 130 170 l 2
 130 158.96 138.96 150 150 150 c 2
 530 150 l 2
 541.04 150 550 158.96 550 170 c 2
 550 430 l 2
 550 441.04 541.04 450 530 450 c 2
 492.253 450 l 2
 464.821 450 443.933 442.923 422.877 429 c 2
 344 388.126 l 2
 321.745 373.41 305 388 305 413 c 2
EndSplineSet
Validated: 33
EndChar

StartChar: afii57673
Encoding: 1497 1497 50
Width: 350
Flags: HMW
LayerCount: 2
Fore
SplineSet
220 290 m 6
 220 430 l 2
 220 441.04 211.04 450 200 450 c 2
 90 450 l 2
 67.9199 450 50 467.92 50 490 c 2
 50 560 l 2
 50 582.08 67.9199 600 90 600 c 2
 260 600 l 2
 282.08 600 300 582.08 300 560 c 2
 300 290 l 6
 300 267.92 282.08 250 260 250 c 4
 237.92 250 220 267.92 220 290 c 6
EndSplineSet
Validated: 1
EndChar

StartChar: afii57674
Encoding: 1498 1498 51
Width: 600
Flags: HMW
LayerCount: 2
Fore
SplineSet
470 -160 m 6
 470 430 l 2
 470 441.04 461.04 450 450 450 c 2
 90 450 l 2
 67.9199 450 50 467.92 50 490 c 2
 50 560 l 2
 50 582.08 67.9199 600 90 600 c 2
 510 600 l 2
 532.08 600 550 582.08 550 560 c 2
 550 -160 l 6
 550 -182.08 532.08 -200 510 -200 c 4
 487.92 -200 470 -182.08 470 -160 c 6
EndSplineSet
Validated: 1
EndChar

StartChar: afii57675
Encoding: 1499 1499 52
Width: 630
Flags: HMW
LayerCount: 2
Fore
SplineSet
580 40 m 6
 580 17.9199 562.08 0 540 0 c 6
 90 0 l 2
 67.9199 0 50 17.9199 50 40 c 2
 50 110 l 2
 50 132.08 67.9199 150 90 150 c 2
 480 150 l 6
 491.04 150 500 158.96 500 170 c 6
 500 430 l 6
 500 441.04 491.04 450 480 450 c 6
 90 450 l 2
 67.9199 450 50 467.92 50 490 c 2
 50 560 l 2
 50 582.08 67.9199 600 90 600 c 2
 540 600 l 6
 562.08 600 580 582.08 580 560 c 6
 580 40 l 6
EndSplineSet
Validated: 1
EndChar

StartChar: afii57676
Encoding: 1500 1500 53
Width: 650
Flags: HMW
LayerCount: 2
Fore
SplineSet
150 600 m 2
 560 600 l 2
 582.08 600 600 582.08 600 560 c 6
 600 40 l 6
 600 17.9199 582.08 0 560 0 c 6
 340 0 l 6
 317.92 0 300 17.9199 300 40 c 6
 300 110 l 6
 300 132.08 317.92 150 340 150 c 6
 500 150 l 6
 511.04 150 520 158.96 520 170 c 6
 520 430 l 6
 520 441.04 511.04 450 500 450 c 6
 90 450 l 2
 67.9199 450 50 467.92 50 490 c 2
 50 860 l 2
 50 882.08 67.9199 900 90 900 c 2
 170 900 l 2
 192.08 900 210 882.08 210 860 c 2
 210 790 l 2
 210 767.92 192.08 750 170 750 c 2
 150 750 l 2
 138.96 750 130 741.04 130 730 c 2
 130 620 l 2
 130 608.96 138.96 600 150 600 c 2
EndSplineSet
Validated: 1
EndChar

StartChar: afii57677
Encoding: 1501 1501 54
Width: 650
Flags: HMW
LayerCount: 2
Fore
SplineSet
520 321 m 6
 520 348.576 508.835 373.571 490.747 391.652 c 6
 461.376 422 l 6
 443.71 439.66 419.432 450 392 450 c 6
 150 450 l 2
 138.96 450 130 441.04 130 430 c 2
 130 170 l 2
 130 158.96 138.96 150 150 150 c 2
 500 150 l 2
 511.04 150 520 158.96 520 170 c 6
 520 321 l 6
600 425 m 6
 600 40 l 6
 600 17.9199 582.08 0 560 0 c 6
 90 0 l 2
 67.9199 0 50 17.9199 50 40 c 2
 50 560 l 2
 50 582.08 67.9199 600 90 600 c 2
 424.998 600 l 6
 452.43 600 476.708 589.66 494.374 572 c 6
 570.747 495.652 l 6
 588.835 477.571 600 452.576 600 425 c 6
EndSplineSet
Validated: 1
EndChar

StartChar: afii57678
Encoding: 1502 1502 55
Width: 720
Flags: HMW
LayerCount: 2
Back
SplineSet
276.998 425 m 2
 276.998 452.576 288.163 477.571 306.251 495.652 c 2
 382.624 572 l 2
 400.29 589.66 424.568 600 452 600 c 2
 660 600 l 2
 682.08 600 700 582.08 700 560 c 2
 700 40 l 2
 700 17.9199 682.08 0 660 0 c 2
 480 0 l 2
 457.92 0 440 17.9199 440 40 c 2
 440 110 l 2
 440 132.08 457.92 150 480 150 c 2
 600 150 l 2
 611.04 150 620 158.96 620 170 c 2
 620 430 l 2
 620 441.04 611.04 450 600 450 c 2
 484.998 450 l 2
 457.566 450 432.994 439.949 415.622 422 c 2
 386.251 391.652 l 2
 368.163 373.571 356.998 348.576 356.998 321 c 1026
220 40 m 2
 220 430 l 2
 220 441.04 211.04 450 200 450 c 2
 180 450 l 2
 157.92 450 140 467.92 140 490 c 2
 140 560 l 2
 140 582.08 157.92 600 180 600 c 2
 260 600 l 2
 282.08 600 300 582.08 300 560 c 2
 300 40 l 2
 300 17.9199 282.08 0 260 0 c 0
 237.92 0 220 17.9199 220 40 c 2
EndSplineSet
Fore
SplineSet
210 500 m 2
 210 478 217.987 474.515 231.5 488 c 2
 316.624 572 l 2
 334.29 589.66 358.568 600 386 600 c 2
 630 600 l 2
 652.08 600 670 582.08 670 560 c 2
 670 40 l 2
 670 17.9199 652.08 0 630 0 c 2
 400 0 l 2
 377.92 0 360 17.9199 360 40 c 2
 360 110 l 2
 360 132.08 377.92 150 400 150 c 2
 570 150 l 2
 581.04 150 590 158.96 590 170 c 2
 590 430 l 2
 590 441.04 581.04 450 570 450 c 2
 404.998 450 l 2
 377.566 450 352.994 439.949 335.622 422 c 2
 249 335 l 2
 230.955 316.876 219.716 291.924 219.747 264.348 c 2
 220 35 l 6
 220.025 12.9199 202.08 -5 180 -5 c 4
 157.92 -5 140 12.9199 140 35 c 6
 140 430 l 2
 140 441.04 131.04 450 120 450 c 2
 90 450 l 2
 67.9199 450 50 467.92 50 490 c 2
 50 560 l 2
 50 582.08 67.9199 600 90 600 c 2
 170 600 l 2
 192.08 600 210 582.08 210 560 c 2
 210 500 l 2
EndSplineSet
Validated: 33
EndChar

StartChar: afii57679
Encoding: 1503 1503 56
Width: 350
Flags: HMW
LayerCount: 2
Fore
SplineSet
220 -160 m 6
 220 430 l 2
 220 441.04 211.04 450 200 450 c 2
 90 450 l 2
 67.9199 450 50 467.92 50 490 c 2
 50 560 l 2
 50 582.08 67.9199 600 90 600 c 2
 260 600 l 2
 282.08 600 300 582.08 300 560 c 2
 300 -160 l 6
 300 -182.08 282.08 -200 260 -200 c 4
 237.92 -200 220 -182.08 220 -160 c 6
EndSplineSet
Validated: 1
EndChar

StartChar: afii57680
Encoding: 1504 1504 57
Width: 420
Flags: HMW
LayerCount: 2
Fore
SplineSet
370 40 m 6
 370 17.9199 352.08 0 330 0 c 6
 90 0 l 2
 67.9199 0 50 17.9199 50 40 c 2
 50 110 l 2
 50 132.08 67.9199 150 90 150 c 2
 270 150 l 6
 281.04 150 290 158.96 290 170 c 6
 290 430 l 6
 290 441.04 281.04 450 270 450 c 6
 150 450 l 2
 127.92 450 110 467.92 110 490 c 2
 110 560 l 2
 110 582.08 127.92 600 150 600 c 2
 330 600 l 6
 352.08 600 370 582.08 370 560 c 6
 370 40 l 6
EndSplineSet
Validated: 1
EndChar

StartChar: afii57681
Encoding: 1505 1505 58
Width: 650
Flags: HMW
LayerCount: 2
Fore
SplineSet
345 150 m 6
 372.576 150 397.571 161.165 415.652 179.253 c 6
 492 255.626 l 6
 509.66 273.292 520 297.57 520 325.002 c 6
 520 430 l 6
 520 441.04 511.04 450 500 450 c 6
 150 450 l 2
 138.96 450 130 441.04 130 430 c 2
 130 170 l 2
 130 158.96 138.96 150 150 150 c 2
 345 150 l 6
382 0 m 6
 90 0 l 2
 67.9199 0 50 17.9199 50 40 c 2
 50 560 l 2
 50 582.08 67.9199 600 90 600 c 2
 560 600 l 6
 582.08 600 600 582.08 600 560 c 6
 600 217 l 6
 600 189.568 589.66 165.29 572 147.624 c 6
 452.652 29.2529 l 6
 434.571 11.165 409.576 0 382 0 c 6
EndSplineSet
Validated: 1
EndChar

StartChar: afii57682
Encoding: 1506 1506 59
Width: 660
Flags: HMW
LayerCount: 2
Fore
SplineSet
610 40 m 2
 610 17.9199 592.08 0 570 0 c 2
 90 0 l 2
 67.9199 0 50 17.9199 50 40 c 2
 50 110 l 2
 50 132.08 67.9199 150 90 150 c 2
 160 150 l 2
 171.04 150 180 158.96 180 170 c 2
 180 430 l 2
 180 441.04 171.04 450 160 450 c 2
 90 450 l 2
 67.9199 450 50 467.92 50 490 c 2
 50 560 l 2
 50 582.08 67.9199 600 90 600 c 2
 220 600 l 2
 242.08 600 260 582.08 260 560 c 2
 260 170 l 2
 260 158.96 268.96 150 280 150 c 2
 510 150 l 2
 521.04 150 530 158.96 530 170 c 2
 530 430 l 2
 530 441.04 521.04 450 510 450 c 2
 440 450 l 6
 417.92 450 400 467.92 400 490 c 6
 400 560 l 6
 400 582.08 417.92 600 440 600 c 6
 570 600 l 2
 592.08 600 610 582.08 610 560 c 2
 610 40 l 2
EndSplineSet
Validated: 1
EndChar

StartChar: afii57683
Encoding: 1507 1507 60
Width: 610
Flags: HMW
LayerCount: 2
Fore
SplineSet
480 -160 m 6
 480 430 l 6
 480 441.04 471.04 450 460 450 c 6
 150 450 l 2
 138.96 450 130 441.04 130 430 c 2
 130 394 l 2
 130 382.96 138.96 374 150 374 c 2
 180 374 l 2
 202.08 374 220 356.08 220 334 c 2
 220 264 l 2
 220 241.92 202.08 224 180 224 c 2
 90 224 l 2
 67.9199 224 50 241.92 50 264 c 2
 50 560 l 2
 50 582.08 67.9199 600 90 600 c 2
 520 600 l 6
 542.08 600 560 582.08 560 560 c 6
 560 -160 l 6
 560 -182.08 542.08 -200 520 -200 c 4
 497.92 -200 480 -182.08 480 -160 c 6
EndSplineSet
Validated: 1
EndChar

StartChar: afii57684
Encoding: 1508 1508 61
Width: 630
Flags: HMW
LayerCount: 2
Fore
SplineSet
150 450 m 2
 138.96 450 130 441.04 130 430 c 2
 130 394 l 2
 130 382.96 138.96 374 150 374 c 2
 180 374 l 2
 202.08 374 220 356.08 220 334 c 2
 220 264 l 2
 220 241.92 202.08 224 180 224 c 2
 90 224 l 2
 67.9199 224 50 241.92 50 264 c 2
 50 560 l 2
 50 582.08 67.9199 600 90 600 c 2
 540 600 l 6
 562.08 600 580 582.08 580 560 c 6
 580 40 l 6
 580 17.9199 562.08 0 540 0 c 6
 90 0 l 2
 67.9199 0 50 17.9199 50 40 c 2
 50 110 l 2
 50 132.08 67.9199 150 90 150 c 2
 480 150 l 6
 491.04 150 500 158.96 500 170 c 6
 500 430 l 6
 500 441.04 491.04 450 480 450 c 6
 150 450 l 2
EndSplineSet
Validated: 1
EndChar

StartChar: uniF000
Encoding: 61440 61440 62
Width: 1000
Flags: W
HStem: 208 60<503.003 572.997> 292 40<292.007 331.993> 348 60<503.003 572.997>
VStem: 292 40<292.007 331.993> 438 60<273.003 342.997> 578 60<273.003 342.997>
LayerCount: 2
Fore
SplineSet
538 408 m 1
 593.2 408 638 363.2 638 308 c 1
 638 252.8 593.2 208 538 208 c 1
 482.8 208 438 252.8 438 308 c 1
 438 363.2 482.8 408 538 408 c 1
312 332 m 1
 323.04 332 332 323.04 332 312 c 1
 332 300.96 323.04 292 312 292 c 1
 300.96 292 292 300.96 292 312 c 1
 292 323.04 300.96 332 312 332 c 1
538 348 m 1
 515.92 348 498 330.08 498 308 c 1
 498 285.92 515.92 268 538 268 c 1
 560.08 268 578 285.92 578 308 c 1
 578 330.08 560.08 348 538 348 c 1
EndSplineSet
Validated: 524289
EndChar
